<mxfile host="app.diagrams.net" modified="2020-12-24T15:45:34.138Z" agent="5.0 (Windows NT 10.0; Win64; x64) AppleWebKit/537.36 (KHTML, like Gecko) Chrome/87.0.4280.88 Safari/537.36" etag="mSUzyIszJkq9wrOjh7c4" version="14.1.2" type="github">
  <diagram id="R2lEEEUBdFMjLlhIrx00" name="Page-1">
    <mxGraphModel dx="1038" dy="548" grid="1" gridSize="10" guides="1" tooltips="1" connect="1" arrows="1" fold="1" page="1" pageScale="1" pageWidth="850" pageHeight="1100" math="0" shadow="0" extFonts="Permanent Marker^https://fonts.googleapis.com/css?family=Permanent+Marker">
      <root>
        <mxCell id="0" />
        <mxCell id="1" parent="0" />
        <mxCell id="C-vyLk0tnHw3VtMMgP7b-1" value="" style="edgeStyle=entityRelationEdgeStyle;endArrow=ERzeroToMany;startArrow=ERone;endFill=1;startFill=0;" parent="1" target="C-vyLk0tnHw3VtMMgP7b-6" edge="1">
          <mxGeometry width="100" height="100" relative="1" as="geometry">
            <mxPoint x="370" y="165" as="sourcePoint" />
            <mxPoint x="440" y="620" as="targetPoint" />
          </mxGeometry>
        </mxCell>
        <mxCell id="C-vyLk0tnHw3VtMMgP7b-12" value="" style="edgeStyle=entityRelationEdgeStyle;endArrow=ERzeroToMany;startArrow=ERone;endFill=1;startFill=0;" parent="1" target="C-vyLk0tnHw3VtMMgP7b-17" edge="1">
          <mxGeometry width="100" height="100" relative="1" as="geometry">
            <mxPoint x="700" y="165" as="sourcePoint" />
            <mxPoint x="460" y="205" as="targetPoint" />
          </mxGeometry>
        </mxCell>
        <mxCell id="J-Ix9VPSojHu7yExUDnc-26" value="Bills" style="shape=table;startSize=30;container=1;collapsible=1;childLayout=tableLayout;fixedRows=1;rowLines=0;fontStyle=1;align=center;resizeLast=1;direction=south;" vertex="1" parent="1">
          <mxGeometry x="660" y="170" width="180" height="270" as="geometry" />
        </mxCell>
        <mxCell id="J-Ix9VPSojHu7yExUDnc-27" value="" style="shape=partialRectangle;collapsible=0;dropTarget=0;pointerEvents=0;fillColor=none;top=0;left=0;bottom=1;right=0;points=[[0,0.5],[1,0.5]];portConstraint=eastwest;direction=south;" vertex="1" parent="J-Ix9VPSojHu7yExUDnc-26">
          <mxGeometry width="150" height="30" as="geometry" />
        </mxCell>
        <mxCell id="J-Ix9VPSojHu7yExUDnc-28" value="PK" style="shape=partialRectangle;connectable=0;fillColor=none;top=0;left=0;bottom=0;right=0;fontStyle=1;overflow=hidden;direction=south;" vertex="1" parent="J-Ix9VPSojHu7yExUDnc-27">
          <mxGeometry width="30" height="30" as="geometry" />
        </mxCell>
        <mxCell id="J-Ix9VPSojHu7yExUDnc-29" value="id_bill" style="shape=partialRectangle;connectable=0;fillColor=none;top=0;left=0;bottom=0;right=0;align=left;spacingLeft=6;fontStyle=5;overflow=hidden;direction=south;" vertex="1" parent="J-Ix9VPSojHu7yExUDnc-27">
          <mxGeometry x="30" width="120" height="30" as="geometry" />
        </mxCell>
        <mxCell id="J-Ix9VPSojHu7yExUDnc-30" value="" style="shape=partialRectangle;collapsible=0;dropTarget=0;pointerEvents=0;fillColor=none;top=0;left=0;bottom=0;right=0;points=[[0,0.5],[1,0.5]];portConstraint=eastwest;direction=south;" vertex="1" parent="J-Ix9VPSojHu7yExUDnc-26">
          <mxGeometry y="30" width="150" height="30" as="geometry" />
        </mxCell>
        <mxCell id="J-Ix9VPSojHu7yExUDnc-31" value="FK1" style="shape=partialRectangle;connectable=0;fillColor=none;top=0;left=0;bottom=0;right=0;editable=1;overflow=hidden;direction=south;" vertex="1" parent="J-Ix9VPSojHu7yExUDnc-30">
          <mxGeometry width="30" height="30" as="geometry" />
        </mxCell>
        <mxCell id="J-Ix9VPSojHu7yExUDnc-32" value="id_customer" style="shape=partialRectangle;connectable=0;fillColor=none;top=0;left=0;bottom=0;right=0;align=left;spacingLeft=6;overflow=hidden;direction=south;" vertex="1" parent="J-Ix9VPSojHu7yExUDnc-30">
          <mxGeometry x="30" width="120" height="30" as="geometry" />
        </mxCell>
        <mxCell id="J-Ix9VPSojHu7yExUDnc-206" value="" style="shape=partialRectangle;collapsible=0;dropTarget=0;pointerEvents=0;fillColor=none;top=0;left=0;bottom=0;right=0;points=[[0,0.5],[1,0.5]];portConstraint=eastwest;direction=south;" vertex="1" parent="J-Ix9VPSojHu7yExUDnc-26">
          <mxGeometry y="60" width="150" height="30" as="geometry" />
        </mxCell>
        <mxCell id="J-Ix9VPSojHu7yExUDnc-207" value="FK2" style="shape=partialRectangle;connectable=0;fillColor=none;top=0;left=0;bottom=0;right=0;fontStyle=0;overflow=hidden;direction=south;" vertex="1" parent="J-Ix9VPSojHu7yExUDnc-206">
          <mxGeometry width="30" height="30" as="geometry" />
        </mxCell>
        <mxCell id="J-Ix9VPSojHu7yExUDnc-208" value="UniqueID" style="shape=partialRectangle;connectable=0;fillColor=none;top=0;left=0;bottom=0;right=0;align=left;spacingLeft=6;fontStyle=0;overflow=hidden;direction=south;" vertex="1" parent="J-Ix9VPSojHu7yExUDnc-206">
          <mxGeometry x="30" width="120" height="30" as="geometry" />
        </mxCell>
        <mxCell id="J-Ix9VPSojHu7yExUDnc-184" value="" style="shape=partialRectangle;collapsible=0;dropTarget=0;pointerEvents=0;fillColor=none;top=0;left=0;bottom=0;right=0;points=[[0,0.5],[1,0.5]];portConstraint=eastwest;direction=south;" vertex="1" parent="J-Ix9VPSojHu7yExUDnc-26">
          <mxGeometry y="90" width="150" height="30" as="geometry" />
        </mxCell>
        <mxCell id="J-Ix9VPSojHu7yExUDnc-185" value="FK2" style="shape=partialRectangle;connectable=0;fillColor=none;top=0;left=0;bottom=0;right=0;fontStyle=0;overflow=hidden;direction=south;" vertex="1" parent="J-Ix9VPSojHu7yExUDnc-184">
          <mxGeometry width="30" height="30" as="geometry" />
        </mxCell>
        <mxCell id="J-Ix9VPSojHu7yExUDnc-186" value="id_order" style="shape=partialRectangle;connectable=0;fillColor=none;top=0;left=0;bottom=0;right=0;align=left;spacingLeft=6;fontStyle=0;overflow=hidden;direction=south;" vertex="1" parent="J-Ix9VPSojHu7yExUDnc-184">
          <mxGeometry x="30" width="120" height="30" as="geometry" />
        </mxCell>
        <mxCell id="J-Ix9VPSojHu7yExUDnc-175" value="" style="shape=partialRectangle;collapsible=0;dropTarget=0;pointerEvents=0;fillColor=none;top=0;left=0;bottom=0;right=0;points=[[0,0.5],[1,0.5]];portConstraint=eastwest;direction=south;" vertex="1" parent="J-Ix9VPSojHu7yExUDnc-26">
          <mxGeometry y="120" width="150" height="30" as="geometry" />
        </mxCell>
        <mxCell id="J-Ix9VPSojHu7yExUDnc-176" value="" style="shape=partialRectangle;connectable=0;fillColor=none;top=0;left=0;bottom=0;right=0;editable=1;overflow=hidden;direction=south;" vertex="1" parent="J-Ix9VPSojHu7yExUDnc-175">
          <mxGeometry width="30" height="30" as="geometry" />
        </mxCell>
        <mxCell id="J-Ix9VPSojHu7yExUDnc-177" value="county" style="shape=partialRectangle;connectable=0;fillColor=none;top=0;left=0;bottom=0;right=0;align=left;spacingLeft=6;overflow=hidden;direction=south;" vertex="1" parent="J-Ix9VPSojHu7yExUDnc-175">
          <mxGeometry x="30" width="120" height="30" as="geometry" />
        </mxCell>
        <mxCell id="J-Ix9VPSojHu7yExUDnc-33" value="" style="shape=partialRectangle;collapsible=0;dropTarget=0;pointerEvents=0;fillColor=none;top=0;left=0;bottom=0;right=0;points=[[0,0.5],[1,0.5]];portConstraint=eastwest;direction=south;" vertex="1" parent="J-Ix9VPSojHu7yExUDnc-26">
          <mxGeometry y="150" width="150" height="30" as="geometry" />
        </mxCell>
        <mxCell id="J-Ix9VPSojHu7yExUDnc-34" value="" style="shape=partialRectangle;connectable=0;fillColor=none;top=0;left=0;bottom=0;right=0;editable=1;overflow=hidden;direction=south;" vertex="1" parent="J-Ix9VPSojHu7yExUDnc-33">
          <mxGeometry width="30" height="30" as="geometry" />
        </mxCell>
        <mxCell id="J-Ix9VPSojHu7yExUDnc-35" value="country" style="shape=partialRectangle;connectable=0;fillColor=none;top=0;left=0;bottom=0;right=0;align=left;spacingLeft=6;overflow=hidden;direction=south;" vertex="1" parent="J-Ix9VPSojHu7yExUDnc-33">
          <mxGeometry x="30" width="120" height="30" as="geometry" />
        </mxCell>
        <mxCell id="J-Ix9VPSojHu7yExUDnc-171" value="" style="shape=partialRectangle;collapsible=0;dropTarget=0;pointerEvents=0;fillColor=none;top=0;left=0;bottom=0;right=0;points=[[0,0.5],[1,0.5]];portConstraint=eastwest;direction=south;" vertex="1" parent="J-Ix9VPSojHu7yExUDnc-26">
          <mxGeometry y="180" width="150" height="30" as="geometry" />
        </mxCell>
        <mxCell id="J-Ix9VPSojHu7yExUDnc-172" value="" style="shape=partialRectangle;connectable=0;fillColor=none;top=0;left=0;bottom=0;right=0;editable=1;overflow=hidden;direction=south;" vertex="1" parent="J-Ix9VPSojHu7yExUDnc-171">
          <mxGeometry width="30" height="30" as="geometry" />
        </mxCell>
        <mxCell id="J-Ix9VPSojHu7yExUDnc-173" value="shipping_address" style="shape=partialRectangle;connectable=0;fillColor=none;top=0;left=0;bottom=0;right=0;align=left;spacingLeft=6;overflow=hidden;direction=south;" vertex="1" parent="J-Ix9VPSojHu7yExUDnc-171">
          <mxGeometry x="30" width="120" height="30" as="geometry" />
        </mxCell>
        <mxCell id="J-Ix9VPSojHu7yExUDnc-36" value="" style="shape=partialRectangle;collapsible=0;dropTarget=0;pointerEvents=0;fillColor=none;top=0;left=0;bottom=0;right=0;points=[[0,0.5],[1,0.5]];portConstraint=eastwest;direction=south;" vertex="1" parent="J-Ix9VPSojHu7yExUDnc-26">
          <mxGeometry y="210" width="150" height="30" as="geometry" />
        </mxCell>
        <mxCell id="J-Ix9VPSojHu7yExUDnc-37" value="" style="shape=partialRectangle;connectable=0;fillColor=none;top=0;left=0;bottom=0;right=0;editable=1;overflow=hidden;direction=south;" vertex="1" parent="J-Ix9VPSojHu7yExUDnc-36">
          <mxGeometry width="30" height="30" as="geometry" />
        </mxCell>
        <mxCell id="J-Ix9VPSojHu7yExUDnc-38" value="town" style="shape=partialRectangle;connectable=0;fillColor=none;top=0;left=0;bottom=0;right=0;align=left;spacingLeft=6;overflow=hidden;direction=south;" vertex="1" parent="J-Ix9VPSojHu7yExUDnc-36">
          <mxGeometry x="30" width="120" height="30" as="geometry" />
        </mxCell>
        <mxCell id="J-Ix9VPSojHu7yExUDnc-59" value="Orders" style="shape=table;startSize=30;container=1;collapsible=1;childLayout=tableLayout;fixedRows=1;rowLines=0;fontStyle=1;align=center;resizeLast=1;direction=south;" vertex="1" parent="1">
          <mxGeometry x="530" y="630" width="180" height="180" as="geometry" />
        </mxCell>
        <mxCell id="J-Ix9VPSojHu7yExUDnc-60" value="" style="shape=partialRectangle;collapsible=0;dropTarget=0;pointerEvents=0;fillColor=none;top=0;left=0;bottom=1;right=0;points=[[0,0.5],[1,0.5]];portConstraint=eastwest;direction=south;" vertex="1" parent="J-Ix9VPSojHu7yExUDnc-59">
          <mxGeometry width="150" height="30" as="geometry" />
        </mxCell>
        <mxCell id="J-Ix9VPSojHu7yExUDnc-61" value="PK" style="shape=partialRectangle;connectable=0;fillColor=none;top=0;left=0;bottom=0;right=0;fontStyle=1;overflow=hidden;direction=south;" vertex="1" parent="J-Ix9VPSojHu7yExUDnc-60">
          <mxGeometry width="30" height="30" as="geometry" />
        </mxCell>
        <mxCell id="J-Ix9VPSojHu7yExUDnc-62" value="id_order" style="shape=partialRectangle;connectable=0;fillColor=none;top=0;left=0;bottom=0;right=0;align=left;spacingLeft=6;fontStyle=5;overflow=hidden;direction=south;" vertex="1" parent="J-Ix9VPSojHu7yExUDnc-60">
          <mxGeometry x="30" width="120" height="30" as="geometry" />
        </mxCell>
        <mxCell id="J-Ix9VPSojHu7yExUDnc-63" value="" style="shape=partialRectangle;collapsible=0;dropTarget=0;pointerEvents=0;fillColor=none;top=0;left=0;bottom=0;right=0;points=[[0,0.5],[1,0.5]];portConstraint=eastwest;direction=south;" vertex="1" parent="J-Ix9VPSojHu7yExUDnc-59">
          <mxGeometry y="30" width="150" height="30" as="geometry" />
        </mxCell>
        <mxCell id="J-Ix9VPSojHu7yExUDnc-64" value="FK1" style="shape=partialRectangle;connectable=0;fillColor=none;top=0;left=0;bottom=0;right=0;editable=1;overflow=hidden;direction=south;" vertex="1" parent="J-Ix9VPSojHu7yExUDnc-63">
          <mxGeometry width="30" height="30" as="geometry" />
        </mxCell>
        <mxCell id="J-Ix9VPSojHu7yExUDnc-65" value="id_customer" style="shape=partialRectangle;connectable=0;fillColor=none;top=0;left=0;bottom=0;right=0;align=left;spacingLeft=6;overflow=hidden;direction=south;" vertex="1" parent="J-Ix9VPSojHu7yExUDnc-63">
          <mxGeometry x="30" width="120" height="30" as="geometry" />
        </mxCell>
        <mxCell id="J-Ix9VPSojHu7yExUDnc-66" value="" style="shape=partialRectangle;collapsible=0;dropTarget=0;pointerEvents=0;fillColor=none;top=0;left=0;bottom=0;right=0;points=[[0,0.5],[1,0.5]];portConstraint=eastwest;direction=south;" vertex="1" parent="J-Ix9VPSojHu7yExUDnc-59">
          <mxGeometry y="60" width="150" height="30" as="geometry" />
        </mxCell>
        <mxCell id="J-Ix9VPSojHu7yExUDnc-67" value="" style="shape=partialRectangle;connectable=0;fillColor=none;top=0;left=0;bottom=0;right=0;editable=1;overflow=hidden;direction=south;" vertex="1" parent="J-Ix9VPSojHu7yExUDnc-66">
          <mxGeometry width="30" height="30" as="geometry" />
        </mxCell>
        <mxCell id="J-Ix9VPSojHu7yExUDnc-68" value="order_date" style="shape=partialRectangle;connectable=0;fillColor=none;top=0;left=0;bottom=0;right=0;align=left;spacingLeft=6;overflow=hidden;direction=south;" vertex="1" parent="J-Ix9VPSojHu7yExUDnc-66">
          <mxGeometry x="30" width="120" height="30" as="geometry" />
        </mxCell>
        <mxCell id="J-Ix9VPSojHu7yExUDnc-69" value="" style="shape=partialRectangle;collapsible=0;dropTarget=0;pointerEvents=0;fillColor=none;top=0;left=0;bottom=0;right=0;points=[[0,0.5],[1,0.5]];portConstraint=eastwest;direction=south;" vertex="1" parent="J-Ix9VPSojHu7yExUDnc-59">
          <mxGeometry y="90" width="150" height="30" as="geometry" />
        </mxCell>
        <mxCell id="J-Ix9VPSojHu7yExUDnc-70" value="" style="shape=partialRectangle;connectable=0;fillColor=none;top=0;left=0;bottom=0;right=0;editable=1;overflow=hidden;direction=south;" vertex="1" parent="J-Ix9VPSojHu7yExUDnc-69">
          <mxGeometry width="30" height="30" as="geometry" />
        </mxCell>
        <mxCell id="J-Ix9VPSojHu7yExUDnc-71" value="products_basket" style="shape=partialRectangle;connectable=0;fillColor=none;top=0;left=0;bottom=0;right=0;align=left;spacingLeft=6;overflow=hidden;direction=south;" vertex="1" parent="J-Ix9VPSojHu7yExUDnc-69">
          <mxGeometry x="30" width="120" height="30" as="geometry" />
        </mxCell>
        <mxCell id="J-Ix9VPSojHu7yExUDnc-142" value="" style="shape=partialRectangle;collapsible=0;dropTarget=0;pointerEvents=0;fillColor=none;top=0;left=0;bottom=0;right=0;points=[[0,0.5],[1,0.5]];portConstraint=eastwest;direction=south;" vertex="1" parent="J-Ix9VPSojHu7yExUDnc-59">
          <mxGeometry y="120" width="150" height="20" as="geometry" />
        </mxCell>
        <mxCell id="J-Ix9VPSojHu7yExUDnc-143" value="" style="shape=partialRectangle;connectable=0;fillColor=none;top=0;left=0;bottom=0;right=0;editable=1;overflow=hidden;direction=south;" vertex="1" parent="J-Ix9VPSojHu7yExUDnc-142">
          <mxGeometry width="30" height="20" as="geometry" />
        </mxCell>
        <mxCell id="J-Ix9VPSojHu7yExUDnc-144" value="product_value" style="shape=partialRectangle;connectable=0;fillColor=none;top=0;left=0;bottom=0;right=0;align=left;spacingLeft=6;overflow=hidden;direction=south;" vertex="1" parent="J-Ix9VPSojHu7yExUDnc-142">
          <mxGeometry x="30" width="120" height="20" as="geometry" />
        </mxCell>
        <mxCell id="J-Ix9VPSojHu7yExUDnc-125" value="Products" style="shape=table;startSize=30;container=1;collapsible=1;childLayout=tableLayout;fixedRows=1;rowLines=0;fontStyle=1;align=center;resizeLast=1;direction=south;" vertex="1" parent="1">
          <mxGeometry x="850" y="450" width="140" height="200" as="geometry" />
        </mxCell>
        <mxCell id="J-Ix9VPSojHu7yExUDnc-126" value="" style="shape=partialRectangle;collapsible=0;dropTarget=0;pointerEvents=0;fillColor=none;top=0;left=0;bottom=1;right=0;points=[[0,0.5],[1,0.5]];portConstraint=eastwest;direction=south;" vertex="1" parent="J-Ix9VPSojHu7yExUDnc-125">
          <mxGeometry width="110" height="30" as="geometry" />
        </mxCell>
        <mxCell id="J-Ix9VPSojHu7yExUDnc-127" value="PK" style="shape=partialRectangle;connectable=0;fillColor=none;top=0;left=0;bottom=0;right=0;fontStyle=1;overflow=hidden;direction=south;" vertex="1" parent="J-Ix9VPSojHu7yExUDnc-126">
          <mxGeometry width="30" height="30" as="geometry" />
        </mxCell>
        <mxCell id="J-Ix9VPSojHu7yExUDnc-128" value="id_product" style="shape=partialRectangle;connectable=0;fillColor=none;top=0;left=0;bottom=0;right=0;align=left;spacingLeft=6;fontStyle=5;overflow=hidden;direction=south;" vertex="1" parent="J-Ix9VPSojHu7yExUDnc-126">
          <mxGeometry x="30" width="80" height="30" as="geometry" />
        </mxCell>
        <mxCell id="J-Ix9VPSojHu7yExUDnc-129" value="" style="shape=partialRectangle;collapsible=0;dropTarget=0;pointerEvents=0;fillColor=none;top=0;left=0;bottom=0;right=0;points=[[0,0.5],[1,0.5]];portConstraint=eastwest;direction=south;" vertex="1" parent="J-Ix9VPSojHu7yExUDnc-125">
          <mxGeometry y="30" width="110" height="30" as="geometry" />
        </mxCell>
        <mxCell id="J-Ix9VPSojHu7yExUDnc-130" value="FK1" style="shape=partialRectangle;connectable=0;fillColor=none;top=0;left=0;bottom=0;right=0;editable=1;overflow=hidden;direction=south;" vertex="1" parent="J-Ix9VPSojHu7yExUDnc-129">
          <mxGeometry width="30" height="30" as="geometry" />
        </mxCell>
        <mxCell id="J-Ix9VPSojHu7yExUDnc-131" value="id_oder" style="shape=partialRectangle;connectable=0;fillColor=none;top=0;left=0;bottom=0;right=0;align=left;spacingLeft=6;overflow=hidden;direction=south;" vertex="1" parent="J-Ix9VPSojHu7yExUDnc-129">
          <mxGeometry x="30" width="80" height="30" as="geometry" />
        </mxCell>
        <mxCell id="J-Ix9VPSojHu7yExUDnc-132" value="" style="shape=partialRectangle;collapsible=0;dropTarget=0;pointerEvents=0;fillColor=none;top=0;left=0;bottom=0;right=0;points=[[0,0.5],[1,0.5]];portConstraint=eastwest;direction=south;" vertex="1" parent="J-Ix9VPSojHu7yExUDnc-125">
          <mxGeometry y="60" width="110" height="30" as="geometry" />
        </mxCell>
        <mxCell id="J-Ix9VPSojHu7yExUDnc-133" value="" style="shape=partialRectangle;connectable=0;fillColor=none;top=0;left=0;bottom=0;right=0;editable=1;overflow=hidden;direction=south;" vertex="1" parent="J-Ix9VPSojHu7yExUDnc-132">
          <mxGeometry width="30" height="30" as="geometry" />
        </mxCell>
        <mxCell id="J-Ix9VPSojHu7yExUDnc-134" value="product_name" style="shape=partialRectangle;connectable=0;fillColor=none;top=0;left=0;bottom=0;right=0;align=left;spacingLeft=6;overflow=hidden;direction=south;" vertex="1" parent="J-Ix9VPSojHu7yExUDnc-132">
          <mxGeometry x="30" width="80" height="30" as="geometry" />
        </mxCell>
        <mxCell id="J-Ix9VPSojHu7yExUDnc-135" value="" style="shape=partialRectangle;collapsible=0;dropTarget=0;pointerEvents=0;fillColor=none;top=0;left=0;bottom=0;right=0;points=[[0,0.5],[1,0.5]];portConstraint=eastwest;direction=south;" vertex="1" parent="J-Ix9VPSojHu7yExUDnc-125">
          <mxGeometry y="90" width="110" height="30" as="geometry" />
        </mxCell>
        <mxCell id="J-Ix9VPSojHu7yExUDnc-136" value="" style="shape=partialRectangle;connectable=0;fillColor=none;top=0;left=0;bottom=0;right=0;editable=1;overflow=hidden;direction=south;" vertex="1" parent="J-Ix9VPSojHu7yExUDnc-135">
          <mxGeometry width="30" height="30" as="geometry" />
        </mxCell>
        <mxCell id="J-Ix9VPSojHu7yExUDnc-137" value="product_price" style="shape=partialRectangle;connectable=0;fillColor=none;top=0;left=0;bottom=0;right=0;align=left;spacingLeft=6;overflow=hidden;direction=south;" vertex="1" parent="J-Ix9VPSojHu7yExUDnc-135">
          <mxGeometry x="30" width="80" height="30" as="geometry" />
        </mxCell>
        <mxCell id="J-Ix9VPSojHu7yExUDnc-139" value="" style="shape=partialRectangle;collapsible=0;dropTarget=0;pointerEvents=0;fillColor=none;top=0;left=0;bottom=0;right=0;points=[[0,0.5],[1,0.5]];portConstraint=eastwest;direction=south;" vertex="1" parent="J-Ix9VPSojHu7yExUDnc-125">
          <mxGeometry y="120" width="110" height="20" as="geometry" />
        </mxCell>
        <mxCell id="J-Ix9VPSojHu7yExUDnc-140" value="" style="shape=partialRectangle;connectable=0;fillColor=none;top=0;left=0;bottom=0;right=0;editable=1;overflow=hidden;direction=south;" vertex="1" parent="J-Ix9VPSojHu7yExUDnc-139">
          <mxGeometry width="30" height="20" as="geometry" />
        </mxCell>
        <mxCell id="J-Ix9VPSojHu7yExUDnc-141" value="product_quantity" style="shape=partialRectangle;connectable=0;fillColor=none;top=0;left=0;bottom=0;right=0;align=left;spacingLeft=6;overflow=hidden;direction=south;" vertex="1" parent="J-Ix9VPSojHu7yExUDnc-139">
          <mxGeometry x="30" width="80" height="20" as="geometry" />
        </mxCell>
        <mxCell id="J-Ix9VPSojHu7yExUDnc-145" value="" style="shape=partialRectangle;collapsible=0;dropTarget=0;pointerEvents=0;fillColor=none;top=0;left=0;bottom=0;right=0;points=[[0,0.5],[1,0.5]];portConstraint=eastwest;direction=south;" vertex="1" parent="J-Ix9VPSojHu7yExUDnc-125">
          <mxGeometry y="140" width="110" height="30" as="geometry" />
        </mxCell>
        <mxCell id="J-Ix9VPSojHu7yExUDnc-146" value="" style="shape=partialRectangle;connectable=0;fillColor=none;top=0;left=0;bottom=0;right=0;editable=1;overflow=hidden;direction=south;" vertex="1" parent="J-Ix9VPSojHu7yExUDnc-145">
          <mxGeometry width="30" height="30" as="geometry" />
        </mxCell>
        <mxCell id="J-Ix9VPSojHu7yExUDnc-147" value="vat_type" style="shape=partialRectangle;connectable=0;fillColor=none;top=0;left=0;bottom=0;right=0;align=left;spacingLeft=6;overflow=hidden;direction=south;" vertex="1" parent="J-Ix9VPSojHu7yExUDnc-145">
          <mxGeometry x="30" width="80" height="30" as="geometry" />
        </mxCell>
        <mxCell id="J-Ix9VPSojHu7yExUDnc-212" value="Person" style="shape=table;startSize=30;container=1;collapsible=1;childLayout=tableLayout;fixedRows=1;rowLines=0;fontStyle=1;align=center;resizeLast=1;direction=south;" vertex="1" parent="1">
          <mxGeometry x="240" y="30" width="180" height="250" as="geometry" />
        </mxCell>
        <mxCell id="J-Ix9VPSojHu7yExUDnc-213" value="" style="shape=partialRectangle;collapsible=0;dropTarget=0;pointerEvents=0;fillColor=none;top=0;left=0;bottom=1;right=0;points=[[0,0.5],[1,0.5]];portConstraint=eastwest;direction=south;" vertex="1" parent="J-Ix9VPSojHu7yExUDnc-212">
          <mxGeometry width="150" height="30" as="geometry" />
        </mxCell>
        <mxCell id="J-Ix9VPSojHu7yExUDnc-214" value="PK" style="shape=partialRectangle;connectable=0;fillColor=none;top=0;left=0;bottom=0;right=0;fontStyle=1;overflow=hidden;direction=south;" vertex="1" parent="J-Ix9VPSojHu7yExUDnc-213">
          <mxGeometry width="30" height="30" as="geometry" />
        </mxCell>
        <mxCell id="J-Ix9VPSojHu7yExUDnc-215" value="id_person" style="shape=partialRectangle;connectable=0;fillColor=none;top=0;left=0;bottom=0;right=0;align=left;spacingLeft=6;fontStyle=5;overflow=hidden;direction=south;" vertex="1" parent="J-Ix9VPSojHu7yExUDnc-213">
          <mxGeometry x="30" width="120" height="30" as="geometry" />
        </mxCell>
        <mxCell id="J-Ix9VPSojHu7yExUDnc-216" value="" style="shape=partialRectangle;collapsible=0;dropTarget=0;pointerEvents=0;fillColor=none;top=0;left=0;bottom=0;right=0;points=[[0,0.5],[1,0.5]];portConstraint=eastwest;direction=south;" vertex="1" parent="J-Ix9VPSojHu7yExUDnc-212">
          <mxGeometry y="30" width="150" height="30" as="geometry" />
        </mxCell>
        <mxCell id="J-Ix9VPSojHu7yExUDnc-217" value="" style="shape=partialRectangle;connectable=0;fillColor=none;top=0;left=0;bottom=0;right=0;editable=1;overflow=hidden;direction=south;" vertex="1" parent="J-Ix9VPSojHu7yExUDnc-216">
          <mxGeometry width="30" height="30" as="geometry" />
        </mxCell>
        <mxCell id="J-Ix9VPSojHu7yExUDnc-218" value="first_name" style="shape=partialRectangle;connectable=0;fillColor=none;top=0;left=0;bottom=0;right=0;align=left;spacingLeft=6;overflow=hidden;direction=south;" vertex="1" parent="J-Ix9VPSojHu7yExUDnc-216">
          <mxGeometry x="30" width="120" height="30" as="geometry" />
        </mxCell>
        <mxCell id="J-Ix9VPSojHu7yExUDnc-219" value="" style="shape=partialRectangle;collapsible=0;dropTarget=0;pointerEvents=0;fillColor=none;top=0;left=0;bottom=0;right=0;points=[[0,0.5],[1,0.5]];portConstraint=eastwest;direction=south;" vertex="1" parent="J-Ix9VPSojHu7yExUDnc-212">
          <mxGeometry y="60" width="150" height="30" as="geometry" />
        </mxCell>
        <mxCell id="J-Ix9VPSojHu7yExUDnc-220" value="" style="shape=partialRectangle;connectable=0;fillColor=none;top=0;left=0;bottom=0;right=0;editable=1;overflow=hidden;direction=south;" vertex="1" parent="J-Ix9VPSojHu7yExUDnc-219">
          <mxGeometry width="30" height="30" as="geometry" />
        </mxCell>
        <mxCell id="J-Ix9VPSojHu7yExUDnc-221" value="last_name" style="shape=partialRectangle;connectable=0;fillColor=none;top=0;left=0;bottom=0;right=0;align=left;spacingLeft=6;overflow=hidden;direction=south;" vertex="1" parent="J-Ix9VPSojHu7yExUDnc-219">
          <mxGeometry x="30" width="120" height="30" as="geometry" />
        </mxCell>
        <mxCell id="J-Ix9VPSojHu7yExUDnc-222" value="" style="shape=partialRectangle;collapsible=0;dropTarget=0;pointerEvents=0;fillColor=none;top=0;left=0;bottom=0;right=0;points=[[0,0.5],[1,0.5]];portConstraint=eastwest;direction=south;" vertex="1" parent="J-Ix9VPSojHu7yExUDnc-212">
          <mxGeometry y="90" width="150" height="30" as="geometry" />
        </mxCell>
        <mxCell id="J-Ix9VPSojHu7yExUDnc-223" value="" style="shape=partialRectangle;connectable=0;fillColor=none;top=0;left=0;bottom=0;right=0;editable=1;overflow=hidden;direction=south;" vertex="1" parent="J-Ix9VPSojHu7yExUDnc-222">
          <mxGeometry width="30" height="30" as="geometry" />
        </mxCell>
        <mxCell id="J-Ix9VPSojHu7yExUDnc-224" value="client_address" style="shape=partialRectangle;connectable=0;fillColor=none;top=0;left=0;bottom=0;right=0;align=left;spacingLeft=6;overflow=hidden;direction=south;" vertex="1" parent="J-Ix9VPSojHu7yExUDnc-222">
          <mxGeometry x="30" width="120" height="30" as="geometry" />
        </mxCell>
        <mxCell id="J-Ix9VPSojHu7yExUDnc-225" value="" style="shape=partialRectangle;collapsible=0;dropTarget=0;pointerEvents=0;fillColor=none;top=0;left=0;bottom=0;right=0;points=[[0,0.5],[1,0.5]];portConstraint=eastwest;direction=south;" vertex="1" parent="J-Ix9VPSojHu7yExUDnc-212">
          <mxGeometry y="120" width="150" height="30" as="geometry" />
        </mxCell>
        <mxCell id="J-Ix9VPSojHu7yExUDnc-226" value="" style="shape=partialRectangle;connectable=0;fillColor=none;top=0;left=0;bottom=0;right=0;editable=1;overflow=hidden;direction=south;" vertex="1" parent="J-Ix9VPSojHu7yExUDnc-225">
          <mxGeometry width="30" height="30" as="geometry" />
        </mxCell>
        <mxCell id="J-Ix9VPSojHu7yExUDnc-227" value="city" style="shape=partialRectangle;connectable=0;fillColor=none;top=0;left=0;bottom=0;right=0;align=left;spacingLeft=6;overflow=hidden;direction=south;" vertex="1" parent="J-Ix9VPSojHu7yExUDnc-225">
          <mxGeometry x="30" width="120" height="30" as="geometry" />
        </mxCell>
        <mxCell id="J-Ix9VPSojHu7yExUDnc-228" value="" style="shape=partialRectangle;collapsible=0;dropTarget=0;pointerEvents=0;fillColor=none;top=0;left=0;bottom=0;right=0;points=[[0,0.5],[1,0.5]];portConstraint=eastwest;direction=south;" vertex="1" parent="J-Ix9VPSojHu7yExUDnc-212">
          <mxGeometry y="150" width="150" height="30" as="geometry" />
        </mxCell>
        <mxCell id="J-Ix9VPSojHu7yExUDnc-229" value="" style="shape=partialRectangle;connectable=0;fillColor=none;top=0;left=0;bottom=0;right=0;editable=1;overflow=hidden;direction=south;" vertex="1" parent="J-Ix9VPSojHu7yExUDnc-228">
          <mxGeometry width="30" height="30" as="geometry" />
        </mxCell>
        <mxCell id="J-Ix9VPSojHu7yExUDnc-230" value="phone_number" style="shape=partialRectangle;connectable=0;fillColor=none;top=0;left=0;bottom=0;right=0;align=left;spacingLeft=6;overflow=hidden;direction=south;" vertex="1" parent="J-Ix9VPSojHu7yExUDnc-228">
          <mxGeometry x="30" width="120" height="30" as="geometry" />
        </mxCell>
        <mxCell id="J-Ix9VPSojHu7yExUDnc-258" value="" style="shape=partialRectangle;collapsible=0;dropTarget=0;pointerEvents=0;fillColor=none;top=0;left=0;bottom=0;right=0;points=[[0,0.5],[1,0.5]];portConstraint=eastwest;direction=south;" vertex="1" parent="J-Ix9VPSojHu7yExUDnc-212">
          <mxGeometry y="180" width="150" height="30" as="geometry" />
        </mxCell>
        <mxCell id="J-Ix9VPSojHu7yExUDnc-259" value="" style="shape=partialRectangle;connectable=0;fillColor=none;top=0;left=0;bottom=0;right=0;editable=1;overflow=hidden;direction=south;" vertex="1" parent="J-Ix9VPSojHu7yExUDnc-258">
          <mxGeometry width="30" height="30" as="geometry" />
        </mxCell>
        <mxCell id="J-Ix9VPSojHu7yExUDnc-260" value="email_address" style="shape=partialRectangle;connectable=0;fillColor=none;top=0;left=0;bottom=0;right=0;align=left;spacingLeft=6;overflow=hidden;direction=south;" vertex="1" parent="J-Ix9VPSojHu7yExUDnc-258">
          <mxGeometry x="30" width="120" height="30" as="geometry" />
        </mxCell>
        <mxCell id="J-Ix9VPSojHu7yExUDnc-231" value="" style="endArrow=classic;html=1;exitX=0.75;exitY=1;exitDx=0;exitDy=0;entryX=0.642;entryY=-0.014;entryDx=0;entryDy=0;entryPerimeter=0;" edge="1" parent="1" source="J-Ix9VPSojHu7yExUDnc-212" target="J-Ix9VPSojHu7yExUDnc-232">
          <mxGeometry width="50" height="50" relative="1" as="geometry">
            <mxPoint x="450" y="260" as="sourcePoint" />
            <mxPoint x="370" y="220" as="targetPoint" />
          </mxGeometry>
        </mxCell>
        <mxCell id="J-Ix9VPSojHu7yExUDnc-232" value="Customers" style="shape=table;startSize=30;container=1;collapsible=1;childLayout=tableLayout;fixedRows=1;rowLines=0;fontStyle=1;align=center;resizeLast=1;direction=south;" vertex="1" parent="1">
          <mxGeometry x="310" y="380" width="180" height="160" as="geometry" />
        </mxCell>
        <mxCell id="J-Ix9VPSojHu7yExUDnc-233" value="" style="shape=partialRectangle;collapsible=0;dropTarget=0;pointerEvents=0;fillColor=none;top=0;left=0;bottom=1;right=0;points=[[0,0.5],[1,0.5]];portConstraint=eastwest;direction=south;" vertex="1" parent="J-Ix9VPSojHu7yExUDnc-232">
          <mxGeometry width="150" height="30" as="geometry" />
        </mxCell>
        <mxCell id="J-Ix9VPSojHu7yExUDnc-234" value="PK" style="shape=partialRectangle;connectable=0;fillColor=none;top=0;left=0;bottom=0;right=0;fontStyle=1;overflow=hidden;direction=south;" vertex="1" parent="J-Ix9VPSojHu7yExUDnc-233">
          <mxGeometry width="30" height="30" as="geometry" />
        </mxCell>
        <mxCell id="J-Ix9VPSojHu7yExUDnc-235" value="id_customer" style="shape=partialRectangle;connectable=0;fillColor=none;top=0;left=0;bottom=0;right=0;align=left;spacingLeft=6;fontStyle=5;overflow=hidden;direction=south;" vertex="1" parent="J-Ix9VPSojHu7yExUDnc-233">
          <mxGeometry x="30" width="120" height="30" as="geometry" />
        </mxCell>
        <mxCell id="J-Ix9VPSojHu7yExUDnc-236" value="" style="shape=partialRectangle;collapsible=0;dropTarget=0;pointerEvents=0;fillColor=none;top=0;left=0;bottom=0;right=0;points=[[0,0.5],[1,0.5]];portConstraint=eastwest;direction=south;" vertex="1" parent="J-Ix9VPSojHu7yExUDnc-232">
          <mxGeometry y="30" width="150" height="30" as="geometry" />
        </mxCell>
        <mxCell id="J-Ix9VPSojHu7yExUDnc-237" value="" style="shape=partialRectangle;connectable=0;fillColor=none;top=0;left=0;bottom=0;right=0;editable=1;overflow=hidden;direction=south;" vertex="1" parent="J-Ix9VPSojHu7yExUDnc-236">
          <mxGeometry width="30" height="30" as="geometry" />
        </mxCell>
        <mxCell id="J-Ix9VPSojHu7yExUDnc-238" value="customer_address" style="shape=partialRectangle;connectable=0;fillColor=none;top=0;left=0;bottom=0;right=0;align=left;spacingLeft=6;overflow=hidden;direction=south;" vertex="1" parent="J-Ix9VPSojHu7yExUDnc-236">
          <mxGeometry x="30" width="120" height="30" as="geometry" />
        </mxCell>
        <mxCell id="J-Ix9VPSojHu7yExUDnc-239" value="" style="shape=partialRectangle;collapsible=0;dropTarget=0;pointerEvents=0;fillColor=none;top=0;left=0;bottom=0;right=0;points=[[0,0.5],[1,0.5]];portConstraint=eastwest;direction=south;" vertex="1" parent="J-Ix9VPSojHu7yExUDnc-232">
          <mxGeometry y="60" width="150" height="30" as="geometry" />
        </mxCell>
        <mxCell id="J-Ix9VPSojHu7yExUDnc-240" value="" style="shape=partialRectangle;connectable=0;fillColor=none;top=0;left=0;bottom=0;right=0;editable=1;overflow=hidden;direction=south;" vertex="1" parent="J-Ix9VPSojHu7yExUDnc-239">
          <mxGeometry width="30" height="30" as="geometry" />
        </mxCell>
        <mxCell id="J-Ix9VPSojHu7yExUDnc-241" value="" style="shape=partialRectangle;connectable=0;fillColor=none;top=0;left=0;bottom=0;right=0;align=left;spacingLeft=6;overflow=hidden;direction=south;" vertex="1" parent="J-Ix9VPSojHu7yExUDnc-239">
          <mxGeometry x="30" width="120" height="30" as="geometry" />
        </mxCell>
        <mxCell id="J-Ix9VPSojHu7yExUDnc-242" value="" style="shape=partialRectangle;collapsible=0;dropTarget=0;pointerEvents=0;fillColor=none;top=0;left=0;bottom=0;right=0;points=[[0,0.5],[1,0.5]];portConstraint=eastwest;direction=south;" vertex="1" parent="J-Ix9VPSojHu7yExUDnc-232">
          <mxGeometry y="90" width="150" height="30" as="geometry" />
        </mxCell>
        <mxCell id="J-Ix9VPSojHu7yExUDnc-243" value="" style="shape=partialRectangle;connectable=0;fillColor=none;top=0;left=0;bottom=0;right=0;editable=1;overflow=hidden;direction=south;" vertex="1" parent="J-Ix9VPSojHu7yExUDnc-242">
          <mxGeometry width="30" height="30" as="geometry" />
        </mxCell>
        <mxCell id="J-Ix9VPSojHu7yExUDnc-244" value="" style="shape=partialRectangle;connectable=0;fillColor=none;top=0;left=0;bottom=0;right=0;align=left;spacingLeft=6;overflow=hidden;direction=south;" vertex="1" parent="J-Ix9VPSojHu7yExUDnc-242">
          <mxGeometry x="30" width="120" height="30" as="geometry" />
        </mxCell>
        <mxCell id="J-Ix9VPSojHu7yExUDnc-245" value="Shipping_Responsible" style="shape=table;startSize=30;container=1;collapsible=1;childLayout=tableLayout;fixedRows=1;rowLines=0;fontStyle=1;align=center;resizeLast=1;direction=south;" vertex="1" parent="1">
          <mxGeometry x="80" y="370" width="180" height="160" as="geometry" />
        </mxCell>
        <mxCell id="J-Ix9VPSojHu7yExUDnc-246" value="" style="shape=partialRectangle;collapsible=0;dropTarget=0;pointerEvents=0;fillColor=none;top=0;left=0;bottom=1;right=0;points=[[0,0.5],[1,0.5]];portConstraint=eastwest;direction=south;" vertex="1" parent="J-Ix9VPSojHu7yExUDnc-245">
          <mxGeometry width="150" height="30" as="geometry" />
        </mxCell>
        <mxCell id="J-Ix9VPSojHu7yExUDnc-247" value="PK" style="shape=partialRectangle;connectable=0;fillColor=none;top=0;left=0;bottom=0;right=0;fontStyle=1;overflow=hidden;direction=south;" vertex="1" parent="J-Ix9VPSojHu7yExUDnc-246">
          <mxGeometry width="30" height="30" as="geometry" />
        </mxCell>
        <mxCell id="J-Ix9VPSojHu7yExUDnc-248" value="id_customer" style="shape=partialRectangle;connectable=0;fillColor=none;top=0;left=0;bottom=0;right=0;align=left;spacingLeft=6;fontStyle=5;overflow=hidden;direction=south;" vertex="1" parent="J-Ix9VPSojHu7yExUDnc-246">
          <mxGeometry x="30" width="120" height="30" as="geometry" />
        </mxCell>
        <mxCell id="J-Ix9VPSojHu7yExUDnc-249" value="" style="shape=partialRectangle;collapsible=0;dropTarget=0;pointerEvents=0;fillColor=none;top=0;left=0;bottom=0;right=0;points=[[0,0.5],[1,0.5]];portConstraint=eastwest;direction=south;" vertex="1" parent="J-Ix9VPSojHu7yExUDnc-245">
          <mxGeometry y="30" width="150" height="30" as="geometry" />
        </mxCell>
        <mxCell id="J-Ix9VPSojHu7yExUDnc-250" value="" style="shape=partialRectangle;connectable=0;fillColor=none;top=0;left=0;bottom=0;right=0;editable=1;overflow=hidden;direction=south;" vertex="1" parent="J-Ix9VPSojHu7yExUDnc-249">
          <mxGeometry width="30" height="30" as="geometry" />
        </mxCell>
        <mxCell id="J-Ix9VPSojHu7yExUDnc-251" value="date_assignment" style="shape=partialRectangle;connectable=0;fillColor=none;top=0;left=0;bottom=0;right=0;align=left;spacingLeft=6;overflow=hidden;direction=south;" vertex="1" parent="J-Ix9VPSojHu7yExUDnc-249">
          <mxGeometry x="30" width="120" height="30" as="geometry" />
        </mxCell>
        <mxCell id="J-Ix9VPSojHu7yExUDnc-252" value="" style="shape=partialRectangle;collapsible=0;dropTarget=0;pointerEvents=0;fillColor=none;top=0;left=0;bottom=0;right=0;points=[[0,0.5],[1,0.5]];portConstraint=eastwest;direction=south;" vertex="1" parent="J-Ix9VPSojHu7yExUDnc-245">
          <mxGeometry y="60" width="150" height="30" as="geometry" />
        </mxCell>
        <mxCell id="J-Ix9VPSojHu7yExUDnc-253" value="" style="shape=partialRectangle;connectable=0;fillColor=none;top=0;left=0;bottom=0;right=0;editable=1;overflow=hidden;direction=south;" vertex="1" parent="J-Ix9VPSojHu7yExUDnc-252">
          <mxGeometry width="30" height="30" as="geometry" />
        </mxCell>
        <mxCell id="J-Ix9VPSojHu7yExUDnc-254" value="date_shippment" style="shape=partialRectangle;connectable=0;fillColor=none;top=0;left=0;bottom=0;right=0;align=left;spacingLeft=6;overflow=hidden;direction=south;" vertex="1" parent="J-Ix9VPSojHu7yExUDnc-252">
          <mxGeometry x="30" width="120" height="30" as="geometry" />
        </mxCell>
        <mxCell id="J-Ix9VPSojHu7yExUDnc-255" value="" style="shape=partialRectangle;collapsible=0;dropTarget=0;pointerEvents=0;fillColor=none;top=0;left=0;bottom=0;right=0;points=[[0,0.5],[1,0.5]];portConstraint=eastwest;direction=south;" vertex="1" parent="J-Ix9VPSojHu7yExUDnc-245">
          <mxGeometry y="90" width="150" height="30" as="geometry" />
        </mxCell>
        <mxCell id="J-Ix9VPSojHu7yExUDnc-256" value="" style="shape=partialRectangle;connectable=0;fillColor=none;top=0;left=0;bottom=0;right=0;editable=1;overflow=hidden;direction=south;" vertex="1" parent="J-Ix9VPSojHu7yExUDnc-255">
          <mxGeometry width="30" height="30" as="geometry" />
        </mxCell>
        <mxCell id="J-Ix9VPSojHu7yExUDnc-257" value="" style="shape=partialRectangle;connectable=0;fillColor=none;top=0;left=0;bottom=0;right=0;align=left;spacingLeft=6;overflow=hidden;direction=south;" vertex="1" parent="J-Ix9VPSojHu7yExUDnc-255">
          <mxGeometry x="30" width="120" height="30" as="geometry" />
        </mxCell>
        <mxCell id="J-Ix9VPSojHu7yExUDnc-261" value="" style="endArrow=classic;html=1;exitX=0.5;exitY=1;exitDx=0;exitDy=0;entryX=0.5;entryY=0;entryDx=0;entryDy=0;" edge="1" parent="1" source="J-Ix9VPSojHu7yExUDnc-212" target="J-Ix9VPSojHu7yExUDnc-245">
          <mxGeometry width="50" height="50" relative="1" as="geometry">
            <mxPoint x="180" y="290" as="sourcePoint" />
            <mxPoint x="385.55999999999995" y="432.76" as="targetPoint" />
          </mxGeometry>
        </mxCell>
        <mxCell id="J-Ix9VPSojHu7yExUDnc-92" value="" style="edgeStyle=orthogonalEdgeStyle;endArrow=ERzeroToMany;startArrow=ERone;endFill=1;startFill=0;entryX=0.5;entryY=1;entryDx=0;entryDy=0;exitX=-0.002;exitY=0.007;exitDx=0;exitDy=0;exitPerimeter=0;" edge="1" parent="1" source="J-Ix9VPSojHu7yExUDnc-142" target="J-Ix9VPSojHu7yExUDnc-232">
          <mxGeometry width="100" height="100" relative="1" as="geometry">
            <mxPoint x="520" y="600" as="sourcePoint" />
            <mxPoint x="340" y="410" as="targetPoint" />
            <Array as="points">
              <mxPoint x="400" y="780" />
            </Array>
          </mxGeometry>
        </mxCell>
        <mxCell id="J-Ix9VPSojHu7yExUDnc-138" value="" style="edgeStyle=orthogonalEdgeStyle;endArrow=ERzeroToMany;startArrow=ERone;endFill=1;startFill=0;entryX=0.5;entryY=1;entryDx=0;entryDy=0;exitX=0.554;exitY=1.033;exitDx=0;exitDy=0;exitPerimeter=0;" edge="1" parent="1" source="J-Ix9VPSojHu7yExUDnc-145" target="J-Ix9VPSojHu7yExUDnc-59">
          <mxGeometry width="100" height="100" relative="1" as="geometry">
            <mxPoint x="650" y="1080" as="sourcePoint" />
            <mxPoint x="480" y="540" as="targetPoint" />
            <Array as="points">
              <mxPoint x="928" y="860" />
              <mxPoint x="620" y="860" />
            </Array>
          </mxGeometry>
        </mxCell>
        <mxCell id="J-Ix9VPSojHu7yExUDnc-209" value="" style="edgeStyle=entityRelationEdgeStyle;fontSize=12;html=1;endArrow=ERzeroToMany;endFill=1;exitX=-0.013;exitY=-0.02;exitDx=0;exitDy=0;entryX=1;entryY=0.5;entryDx=0;entryDy=0;exitPerimeter=0;" edge="1" parent="1" source="J-Ix9VPSojHu7yExUDnc-33" target="J-Ix9VPSojHu7yExUDnc-242">
          <mxGeometry width="100" height="100" relative="1" as="geometry">
            <mxPoint x="470" y="470" as="sourcePoint" />
            <mxPoint x="460" y="385" as="targetPoint" />
          </mxGeometry>
        </mxCell>
        <mxCell id="J-Ix9VPSojHu7yExUDnc-210" value="" style="edgeStyle=entityRelationEdgeStyle;fontSize=12;html=1;endArrow=ERmandOne;startArrow=ERmandOne;entryX=1;entryY=0.5;entryDx=0;entryDy=0;exitX=0.544;exitY=1.007;exitDx=0;exitDy=0;exitPerimeter=0;" edge="1" parent="1" source="J-Ix9VPSojHu7yExUDnc-36" target="J-Ix9VPSojHu7yExUDnc-69">
          <mxGeometry width="100" height="100" relative="1" as="geometry">
            <mxPoint x="760" y="340" as="sourcePoint" />
            <mxPoint x="560" y="490" as="targetPoint" />
          </mxGeometry>
        </mxCell>
      </root>
    </mxGraphModel>
  </diagram>
</mxfile>
